<svg width="562" height="288" viewBox="0 0 562 288" fill="none" xmlns="http://www.w3.org/2000/svg">
<path d="M61.5805 23.3103C51.1076 23.3103 42.9986 27.2551 37.2535 35.1448C31.5084 42.9747 28.6358 53.9126 28.6358 67.9585C28.6358 97.1861 39.6174 111.8 61.5805 111.8C70.7966 111.8 81.9577 109.499 95.0638 104.896V128.207C84.2917 132.69 72.2628 134.931 58.9772 134.931C39.8867 134.931 25.2845 129.163 15.1707 117.627C5.0569 106.032 0 89.416 0 67.7792C0 54.1517 2.48357 42.2275 7.4507 32.0069C12.4178 21.7264 19.5394 13.8667 28.8154 8.42758C38.1512 2.92873 49.0729 0.17931 61.5805 0.17931C74.3275 0.17931 87.1343 3.25747 100.001 9.41378L91.0242 32.0069C86.117 29.6758 81.1797 27.6437 76.2126 25.9103C71.2455 24.177 66.3681 23.3103 61.5805 23.3103Z" fill="white"/>
<path d="M343.369 67.4206C343.369 89.1171 337.982 105.793 327.21 117.448C316.438 129.103 300.998 134.931 280.89 134.931C280.205 134.931 178.349 134.924 177.675 134.911C158.559 134.527 143.799 128.706 133.395 117.448C122.622 105.793 117.236 89.0574 117.236 67.2413C117.236 45.4252 122.622 28.7793 133.395 17.3034C143.826 6.19464 158.586 0.434721 177.675 0.0236892C178.408 0.00789639 280.324 0 281.07 0C301.238 0 316.648 5.79769 327.3 17.3931C338.012 28.9885 343.369 45.6643 343.369 67.4206ZM146.411 67.4206C146.411 82.0643 149.194 93.0919 154.759 100.503C159.978 107.452 167.616 111.144 177.675 111.577C178.344 111.606 280.2 111.621 280.89 111.621C303.093 111.621 314.194 96.8873 314.194 67.4206C314.194 37.8942 303.153 23.131 281.07 23.131C280.317 23.131 178.402 23.1484 177.675 23.1829C167.701 23.6561 160.092 27.3744 154.849 34.3379C149.224 41.7494 146.411 52.777 146.411 67.4206Z" fill="white"/>
<path d="M418.731 133.138L387.133 30.3034H386.325C387.462 51.2229 388.031 65.1792 388.031 72.1723V133.138H363.165V2.06207H401.047L432.106 102.296H432.645L465.59 2.06207H503.472V133.138H477.529V71.0965C477.529 68.1677 477.559 64.7907 477.619 60.9655C477.738 57.1402 478.157 46.9793 478.875 30.4827H478.067L444.225 133.138H418.731Z" fill="white"/>
<path d="M530.581 120.317C530.581 115.296 531.928 111.501 534.621 108.931C537.314 106.361 541.234 105.076 546.38 105.076C551.348 105.076 555.178 106.391 557.871 109.021C560.624 111.65 562 115.416 562 120.317C562 125.039 560.624 128.775 557.871 131.524C555.118 134.214 551.288 135.558 546.38 135.558C541.353 135.558 537.464 134.244 534.711 131.614C531.958 128.924 530.581 125.158 530.581 120.317Z" fill="white"/>
<path d="M112.658 155.131V239.945C112.658 249.628 110.474 258.115 106.105 265.407C101.796 272.699 95.5425 278.287 87.3438 282.172C79.145 286.057 69.4501 288 58.2591 288C41.3828 288 28.2768 283.697 18.9409 275.09C9.60512 266.423 4.93721 254.589 4.93721 239.586V155.131H32.6754V235.372C32.6754 245.474 34.7101 252.885 38.7796 257.607C42.849 262.329 49.5816 264.69 58.9772 264.69C68.0737 264.69 74.6566 262.329 78.7261 257.607C82.8554 252.825 84.9201 245.354 84.9201 235.193V155.131H112.658Z" fill="white"/>
<path d="M261.223 286.207H225.855L168.763 187.048H167.955C169.092 204.561 169.661 217.053 169.661 224.524V286.207H144.795V155.131H179.894L236.896 253.303H237.525C236.627 236.269 236.178 224.225 236.178 217.172V155.131H261.223V286.207Z" fill="white"/>
<path d="M294.348 286.207V155.131H322.176V286.207H294.348Z" fill="white"/>
<path d="M405.839 286.207H378.011V178.262H342.373V155.131H441.477V178.262H405.839V286.207Z" fill="white"/>
<path d="M502.518 209.104L529.898 155.131H559.88L516.343 235.193V286.207H488.694V236.09L445.157 155.131H475.319L502.518 209.104Z" fill="white"/>
</svg>
