<svg width="312" height="68" viewBox="0 0 312 68" fill="none" xmlns="http://www.w3.org/2000/svg">
<path d="M87.5143 19.9263V24.846H76.5879C71.1835 24.846 68.7554 27.5401 68.7554 33.9826C68.7554 40.4251 71.1052 43.1192 76.5879 43.1192H87.5143V48.0389H76.5879C68.3638 48.0389 63.8601 43.3925 63.8601 33.9826C63.8601 24.5727 68.403 19.9263 76.5879 19.9263H87.5143Z" fill="white"/>
<path d="M108.466 19.9263C116.651 19.9263 121.233 24.5727 121.233 34.0216C121.233 43.4706 116.73 48.0389 108.466 48.0389H104.55C96.3259 48.0389 91.8222 43.4315 91.8222 34.0216C91.8222 24.6117 96.365 19.9263 104.55 19.9263H108.466ZM104.55 24.846C99.1456 24.846 96.7175 27.5792 96.7175 34.0216C96.7175 40.4641 99.0672 43.1192 104.55 43.1192H108.466C113.91 43.1192 116.299 40.4251 116.299 33.9826C116.299 27.5401 113.949 24.846 108.466 24.846H104.55Z" fill="white"/>
<path d="M128.048 48.0389H122.8L131.533 24.6117C131.84 23.097 132.679 21.7413 133.9 20.7891C135.12 19.837 136.642 19.351 138.191 19.4187C139.025 19.3288 139.87 19.4246 140.663 19.6992C141.456 19.9737 142.178 20.4202 142.778 21.0065C143.377 21.5928 143.838 22.3043 144.129 23.0897C144.419 23.8752 144.531 24.715 144.457 25.5488V42.143C144.435 42.3422 144.455 42.5437 144.515 42.7348C144.576 42.9258 144.676 43.1022 144.808 43.2527C144.941 43.4033 145.103 43.5247 145.286 43.6092C145.468 43.6938 145.666 43.7397 145.867 43.7439C146.219 43.7418 146.562 43.6268 146.844 43.4159C147.126 43.205 147.332 42.9094 147.433 42.5725L154.286 24.6117C154.593 23.097 155.432 21.7413 156.653 20.7891C157.874 19.837 159.396 19.351 160.944 19.4187C161.78 19.3215 162.628 19.4122 163.424 19.6841C164.221 19.9561 164.946 20.4023 165.547 20.9902C166.148 21.5781 166.609 22.2927 166.897 23.0815C167.185 23.8703 167.292 24.7134 167.21 25.5488V48.0389H162.236V25.7831C162.264 25.5809 162.249 25.3752 162.191 25.1794C162.133 24.9837 162.034 24.8024 161.901 24.6475C161.768 24.4925 161.603 24.3675 161.418 24.2806C161.233 24.1937 161.031 24.1468 160.827 24.1432C160.474 24.1651 160.136 24.2922 159.857 24.5081C159.577 24.7239 159.369 25.0185 159.26 25.3536L152.407 43.3144C152.108 44.8329 151.27 46.1933 150.048 47.1468C148.825 48.1003 147.299 48.5833 145.749 48.5074C144.916 48.5983 144.073 48.5029 143.281 48.2282C142.49 47.9534 141.769 47.5062 141.173 46.9191C140.577 46.3319 140.119 45.6196 139.833 44.834C139.548 44.0483 139.442 43.2091 139.522 42.3773V25.7831C139.544 25.5788 139.523 25.3722 139.46 25.1764C139.398 24.9807 139.295 24.8 139.159 24.6458C139.023 24.4916 138.856 24.3674 138.669 24.2809C138.482 24.1943 138.279 24.1475 138.073 24.1432C137.717 24.1539 137.374 24.2768 137.092 24.4943C136.811 24.7118 136.606 25.0126 136.507 25.3536L128.048 48.0389Z" fill="white"/>
<path d="M178.019 42.3773V48.0389H173.28V42.3773H178.019Z" fill="white"/>
<path d="M187.731 19.9263V38.7071C187.731 41.4793 189.141 43.1192 192.392 43.1192H197.404C198.023 43.2459 198.662 43.2218 199.269 43.0488C199.876 42.8759 200.432 42.5593 200.89 42.126C201.348 41.6927 201.693 41.1555 201.898 40.5602C202.103 39.9649 202.16 39.3292 202.065 38.7071V19.9263H206.882V39.0585C207.038 40.2852 206.909 41.5315 206.504 42.7003C206.099 43.8692 205.429 44.9292 204.546 45.7979C203.664 46.6667 202.592 47.3208 201.414 47.7095C200.237 48.0981 198.985 48.2108 197.757 48.0389H191.804C190.577 48.2124 189.327 48.1004 188.151 47.7117C186.974 47.3229 185.904 46.668 185.024 45.7982C184.144 44.9285 183.478 43.8674 183.078 42.6981C182.678 41.5288 182.555 40.2831 182.718 39.0585V19.9263H187.731Z" fill="white"/>
<path d="M218.396 48.0389H213.461V25.5488C213.389 24.6983 213.509 23.8425 213.813 23.0445C214.117 22.2465 214.597 21.5267 215.217 20.9384C215.837 20.35 216.582 19.9079 217.397 19.6449C218.211 19.3819 219.074 19.3046 219.923 19.4187C221.497 19.3353 223.05 19.8115 224.305 20.7624C225.56 21.7133 226.436 23.0774 226.776 24.6117L235 42.5725C235.153 42.9218 235.405 43.2187 235.726 43.4269C236.046 43.635 236.42 43.7452 236.802 43.7439C237.022 43.7669 237.245 43.7419 237.454 43.6707C237.663 43.5995 237.855 43.4838 238.015 43.3315C238.175 43.1792 238.3 42.9941 238.382 42.7889C238.463 42.5837 238.499 42.3633 238.486 42.143V19.9263H243.46V42.3773C243.525 43.2298 243.399 44.0863 243.091 44.884C242.782 45.6817 242.299 46.4006 241.676 46.9882C241.052 47.5757 240.306 48.017 239.489 48.2799C238.673 48.5427 237.809 48.6205 236.959 48.5074C235.38 48.5924 233.822 48.1177 232.56 47.1672C231.299 46.2168 230.415 44.852 230.066 43.3144L221.842 25.3536C221.728 24.9833 221.492 24.6623 221.172 24.4426C220.852 24.2229 220.467 24.1174 220.08 24.1432C219.856 24.1194 219.63 24.1452 219.417 24.2186C219.205 24.2921 219.011 24.4114 218.85 24.568C218.69 24.7247 218.565 24.9148 218.487 25.1249C218.408 25.3349 218.377 25.5597 218.396 25.7831V48.0389Z" fill="white"/>
<path d="M255.13 19.9263V48.0389H250.235V19.9263H255.13Z" fill="white"/>
<path d="M281.173 19.9263V24.846H272.949V48.0389H267.975V24.846H259.751V19.9263H281.173Z" fill="white"/>
<path d="M289.75 19.9263L297.582 31.9522L305.415 19.9263H311.25L300.089 35.8568V47.9998H295.115V35.8568L283.758 19.8873L289.75 19.9263Z" fill="white"/>
<path d="M1.65571 31.2588C2.00636 32.3246 2.38888 31.0031 2.80329 30.5981C3.6321 29.7668 4.77968 30.2891 5.50224 31.1416C5.60222 31.3013 5.65526 31.486 5.65526 31.6745C5.65526 31.863 5.60222 32.0477 5.50224 32.2073C4.30152 34.0084 4.63092 35.1594 6.66044 35.9267C7.14923 36.1185 7.72302 36.0972 8.19055 36.2997C8.88285 36.5311 9.52478 36.8928 10.0819 37.3654C10.4743 37.6648 10.7431 38.0986 10.8372 38.584C10.9313 39.0695 10.844 39.5726 10.592 39.9977C10.0072 40.6082 9.22242 40.9865 8.38182 41.0634C7.56736 41.0999 6.75386 40.9726 5.98923 40.6889C5.2246 40.4052 4.52431 39.9709 3.92962 39.4116C3.56835 39.1238 2.35701 38.0048 2.76079 38.591C3.44084 39.7526 4.13151 40.9036 4.79031 42.0758C5.16931 42.6747 5.4124 43.3497 5.50238 44.0532C5.59235 44.7567 5.52701 45.4715 5.31097 46.1469C5.0979 46.6854 5.04573 47.2744 5.16082 47.8421C5.27592 48.4099 5.55331 48.9317 5.95914 49.344C6.3259 49.7261 6.58881 50.1962 6.72276 50.7093C6.8567 51.2224 6.8572 51.7614 6.7242 52.2747C6.42524 53.3141 6.43923 54.419 6.7644 55.4505C7.08957 56.482 7.71142 57.3941 8.55183 58.0722C8.58582 58.0959 8.62503 58.1109 8.6661 58.116C8.70717 58.121 8.74885 58.116 8.78754 58.1013C8.82624 58.0866 8.8608 58.0627 8.88823 58.0317C8.91566 58.0006 8.93514 57.9633 8.94499 57.923C9.90131 52.9568 8.75372 47.7987 10.6982 43.067C10.847 42.6087 11.0701 42.8325 11.0595 43.067C11.1551 44.1327 11.2402 45.1984 11.3358 46.3387C11.4792 48.1975 12.0367 50.0002 12.9673 51.6141C13.8978 53.228 15.1777 54.6119 16.7124 55.6637C18.3913 56.8679 20.1658 57.9443 21.9297 59.0207C24.1049 60.295 25.9964 62.0034 27.487 64.0402C27.8695 64.5837 28.3051 65.1059 28.7089 65.6068C31.3122 69.0704 36.3489 68.5055 38.8884 65.2977C39.1354 64.8533 39.2428 64.3444 39.1966 63.8377C39.1966 61.8555 39.1966 59.8732 39.1966 57.891C42.9687 56.5695 44.977 54.2676 45.6358 50.495C45.572 50.495 45.4658 50.495 45.4445 50.5696C43.2343 54.566 39.7278 55.2054 35.6794 54.3209C31.631 53.4363 27.6145 52.4879 23.6192 51.4541C21.3733 50.9904 19.3194 49.8571 17.7267 48.2027C16.134 46.5482 15.0768 44.4498 14.6935 42.1824C13.9922 38.7721 13.3547 35.3512 12.7065 31.9302C12.6741 31.5259 12.6741 31.1197 12.7065 30.7153C14.2366 30.9605 14.5873 32.2606 15.2992 33.4009C15.5755 32.425 15.6045 31.3954 15.3837 30.4053C15.1629 29.4153 14.6992 28.4962 14.0347 27.7313C14.0045 27.6891 13.9838 27.6408 13.9738 27.5898C13.9639 27.5388 13.965 27.4862 13.9771 27.4357C13.9892 27.3851 14.012 27.3378 14.0439 27.2969C14.0759 27.2559 14.1162 27.2224 14.1622 27.1985L15.6605 26.4631C15.693 26.451 15.7211 26.4292 15.7409 26.4006C15.7607 26.3721 15.7713 26.3381 15.7713 26.3033C15.7713 26.2685 15.7607 26.2345 15.7409 26.2059C15.7211 26.1774 15.693 26.1555 15.6605 26.1434C14.6485 25.7883 13.7437 25.1801 13.0316 24.3763C12.3194 23.5725 11.8235 22.5998 11.5908 21.5502C11.5759 21.516 11.5514 21.4868 11.5203 21.4664C11.4891 21.4459 11.4527 21.435 11.4155 21.435C11.3782 21.435 11.3418 21.4459 11.3107 21.4664C11.2795 21.4868 11.255 21.516 11.2402 21.5502C10.8598 22.4244 10.7203 23.385 10.8364 24.3317C10.849 24.488 10.8184 24.6448 10.7479 24.7848C10.6775 24.9248 10.5698 25.0426 10.4369 25.1252C10.304 25.2079 10.151 25.2521 9.9946 25.2531C9.83823 25.2541 9.68462 25.2119 9.55066 25.131C7.4255 23.8308 7.08548 21.5182 8.8281 19.3655C9.61875 18.4121 10.4669 17.5081 11.3677 16.6586C12.8128 15.1986 12.8234 13.2057 11.5908 12.7687C11.357 12.6941 10.2307 12.3318 11.0808 12.0547C11.6218 11.8259 12.2209 11.7737 12.7931 11.9057C13.3653 12.0377 13.8815 12.3471 14.2685 12.79C14.6728 13.2079 14.9275 13.7483 14.9929 14.3268C15.0583 14.9053 14.9306 15.4892 14.6298 15.9872C14.0902 16.9253 13.6111 17.8971 13.1953 18.8966C12.6959 20.3033 13.1953 21.4117 14.8104 22.2429C14.8334 22.2613 14.8624 22.2704 14.8918 22.2683C14.9211 22.2662 14.9485 22.253 14.9687 22.2315C14.9888 22.21 15.0001 22.1817 15.0003 22.1522C15.0005 22.1227 14.9896 22.0942 14.9698 22.0724C14.1622 20.5484 15.2886 19.7278 15.9686 18.7154C16.9947 17.2877 17.874 15.7595 18.5932 14.1542C20.0489 10.5094 18.5188 7.75987 14.6935 6.88599C13.716 6.65153 12.6534 6.57693 12.1646 5.55385C12.1426 5.5131 12.1111 5.47828 12.0728 5.45235C12.0345 5.42642 11.9906 5.41015 11.9447 5.40492C11.8988 5.39969 11.8523 5.40565 11.8092 5.4223C11.7661 5.43895 11.7276 5.4658 11.6971 5.50056C10.6345 6.69416 10.8045 7.48279 12.2921 9.10267C12.3574 9.17469 12.4031 9.26243 12.4247 9.35738C12.4462 9.45232 12.443 9.55125 12.4152 9.64454C12.3874 9.73784 12.336 9.82235 12.266 9.88986C12.196 9.95737 12.1099 10.0056 12.0158 10.0298C11.6242 10.1582 11.2095 10.2005 10.8001 10.1538C10.3907 10.1071 9.99615 9.97244 9.64326 9.75907C9.29038 9.54571 8.98746 9.25861 8.75512 8.9173C8.52277 8.576 8.36646 8.18851 8.29681 7.78119C8.26717 7.68457 8.21799 7.59512 8.15233 7.51842C8.08667 7.44172 8.00595 7.37943 7.91521 7.33542C7.82447 7.29142 7.72566 7.26665 7.62495 7.26267C7.52423 7.25869 7.42378 7.27557 7.32987 7.31227C6.9999 7.42098 6.71585 7.63759 6.5232 7.92743C6.33054 8.21726 6.24043 8.56355 6.26729 8.91084C6.27462 9.59076 6.13609 10.2643 5.86108 10.8858C5.58608 11.5073 5.18104 12.0622 4.67343 12.513C3.39833 13.6533 3.44084 14.4952 4.32277 16.0405C5.0347 17.2873 4.90719 17.4152 3.56835 17.8735C2.89177 18.1206 2.33365 18.6157 2.00636 19.2589C1.60008 19.9765 1.33326 20.7648 1.22005 21.5822C1.22005 22.1896 1.68759 22.9889 1.58133 23.5857C1.41132 24.4703 0.0937209 25.7917 1.16692 25.1736C1.86387 24.7334 2.67581 24.5115 3.49909 24.5361C4.32236 24.5608 5.11964 24.831 5.78913 25.3122C6.33505 25.7343 6.78511 26.2681 7.10939 26.8781C7.43367 27.4882 7.62474 28.1605 7.66989 28.8503C5.87414 27.5928 4.2909 25.6532 2.03824 27.4223C0.84815 28.488 1.27318 29.8521 1.65571 31.2588ZM6.05478 14.9641C5.86674 14.6968 5.77671 14.3724 5.79995 14.0461C5.82319 13.7197 5.95827 13.4115 6.18228 13.1737C6.33102 12.9746 6.54832 12.8381 6.79187 12.7908C7.03543 12.7435 7.28781 12.7888 7.49988 12.9179L9.62504 14.2394C10.4963 14.6657 9.24251 15.1133 8.77497 15.1559C7.86116 15.2199 6.4373 15.465 6.05478 14.9641Z" fill="white"/>
<path d="M36.2213 18.8966C36.415 18.9608 36.5977 19.0542 36.7633 19.1737C37.9321 19.9197 38.2084 20.8255 37.3689 21.9445C36.7237 22.7747 35.9486 23.4945 35.0738 24.0759C34.8927 24.2026 34.6862 24.2882 34.4688 24.3267C34.2514 24.3652 34.0282 24.3557 33.8148 24.2989C33.6014 24.2421 33.4029 24.1393 33.2331 23.9978C33.0633 23.8562 32.9263 23.6792 32.8317 23.4791C31.7691 21.433 30.2072 20.6763 27.997 21.4543C26.6475 21.9232 25.4362 22.7864 24.108 23.3513C23.5004 23.631 22.8247 23.7273 22.1634 23.6283C21.4351 23.4503 20.7239 23.2078 20.0383 22.9037C19.9183 22.8537 19.8117 22.7762 19.7271 22.6773C19.6425 22.5784 19.5822 22.4609 19.5512 22.3344C19.5202 22.2079 19.5192 22.0758 19.5485 21.9488C19.5777 21.8219 19.6363 21.7036 19.7195 21.6035C21.1009 19.9836 22.3866 18.4063 23.7361 16.9676C24.1702 16.4202 24.7645 16.023 25.4354 15.8319C26.1063 15.6407 26.8201 15.6652 27.4763 15.9019C30.3338 17.0619 33.2533 18.0616 36.2213 18.8966Z" fill="white"/>
<path d="M33.4268 43.4719C32.5801 43.5706 31.7289 43.624 30.8766 43.6318C31.036 42.4062 31.4397 41.7561 32.3748 42.321C32.7753 42.5914 33.2629 42.7 33.7398 42.6249C34.2167 42.5497 34.6477 42.2965 34.9462 41.916C35.4922 41.2996 36.2273 40.8833 37.0355 40.7328C37.8437 40.5822 38.6789 40.7061 39.4091 41.0847C39.8671 41.2242 40.3437 41.2925 40.8223 41.2872V40.9888C40.3385 40.702 39.9013 40.3426 39.526 39.9231C38.4634 38.4418 37.3264 37.408 35.3819 37.6851C35.1637 37.7081 34.9433 37.6713 34.7444 37.5785C33.6818 37.067 33.788 36.0546 33.9049 35.1594C34.0218 34.2642 34.7975 34.7437 35.35 34.7224C35.9026 34.7011 36.9226 34.7224 37.3264 34.3494C38.6121 33.1239 39.9085 33.369 41.3536 33.8485C42.5437 34.2428 43.7869 34.7118 44.9345 33.646C45.2017 34.2249 45.2937 34.8696 45.1993 35.5003C45.1049 36.1311 44.8281 36.7203 44.4032 37.1949C44.1245 37.4649 43.9247 37.8062 43.8254 38.1819C43.7262 38.5575 43.7312 38.9533 43.84 39.3263C43.9675 40.4986 44.3288 41.8094 42.9262 42.6513C42.7562 42.7472 42.8731 43.5998 43.0856 43.9622C43.1791 44.1974 43.3423 44.3981 43.5533 44.5373C43.7642 44.6764 44.0127 44.7472 44.265 44.7401C45.0088 44.7401 43.5 46.5945 43.2025 46.1788L42.6924 45.3689C40.8117 42.0652 38.8778 41.3938 35.4032 42.8005C34.7702 43.0945 34.1076 43.3196 33.4268 43.4719Z" fill="white"/>
<path d="M45.2639 9.84867C44.7326 9.63553 44.8176 10.9144 44.6795 10.5947C44.3288 9.76341 43.2875 7.39753 43.3619 7.97302C43.275 8.97109 43.0827 9.95708 42.7881 10.9144C42.7243 11.1702 42.4374 11.4472 42.4268 10.9144C42.2993 8.86821 40.7585 7.71724 39.6428 6.24656C39.0984 5.4602 38.6016 4.64167 38.1552 3.79542C38.0065 3.61425 38.3784 3.39045 38.559 3.50768L41.8742 5.86291C41.9911 5.9375 42.1611 5.96948 42.108 5.7883C41.8742 4.59471 39.9085 1.95174 40.376 2.02634C41.5925 2.29641 42.6757 2.98672 43.4362 3.97659C44.5088 5.17486 45.7384 6.2217 47.0915 7.08847C50.8212 9.2199 51.8518 11.1488 51.108 15.433C51.0018 16.0724 50.8318 17.0422 51.3312 17.4366C52.4788 18.3318 50.7468 22.147 50.7149 20.9854C50.7893 16.2962 49.7798 12.1826 45.2639 9.84867Z" fill="white"/>
<path d="M42.7774 26.4099C42.5454 25.3392 42.3927 24.2527 42.3205 23.1594C42.274 22.8574 42.3098 22.5484 42.424 22.2651C42.5383 21.9818 42.7269 21.7347 42.9698 21.5502C43.2126 21.3656 43.5007 21.2503 43.8036 21.2165C44.1064 21.1828 44.4127 21.2318 44.6901 21.3584C46.3566 21.9098 47.9652 22.6237 49.4929 23.4898C49.8287 23.7075 50.1105 23.9992 50.3168 24.3427C50.523 24.6863 50.6483 25.0725 50.683 25.472C50.5024 27.5395 49.9923 29.5644 49.5461 31.9303L47.304 30.5555C47.7124 30.0797 47.937 29.4728 47.937 28.845C47.937 28.2172 47.7124 27.6103 47.304 27.1345C46.3052 25.7385 45.0939 25.504 42.7774 26.4099Z" fill="white"/>
<path d="M32.0029 1.32297L33.6818 3.01745C33.7541 3.09065 33.8447 3.14302 33.9441 3.1691C34.0436 3.19517 34.1481 3.19399 34.2469 3.16568C34.3458 3.13736 34.4352 3.08296 34.5058 3.00814C34.5765 2.93332 34.6259 2.84085 34.6487 2.74036C34.8187 2.00502 34.8931 1.36559 35.3925 1.99436C36.2638 3.53965 36.3489 5.13822 37.6346 6.54496C37.6864 6.59688 37.7213 6.66339 37.7346 6.73565C37.7478 6.80791 37.7389 6.88251 37.7089 6.94956C37.679 7.01661 37.6294 7.07294 37.5668 7.11107C37.5041 7.14921 37.4314 7.16734 37.3583 7.16307C33.9687 6.94993 30.5153 4.75456 31.0572 1.58939C31.0835 1.49388 31.134 1.4068 31.2037 1.33658C31.2734 1.26637 31.36 1.21539 31.4551 1.18859C31.5502 1.1618 31.6506 1.16009 31.7466 1.18363C31.8426 1.20717 31.9309 1.25516 32.0029 1.32297Z" fill="white"/>
<path d="M22.291 10.7758C22.2606 10.8057 22.222 10.8258 22.1802 10.8335C22.1384 10.8411 22.0952 10.836 22.0563 10.8188C22.0174 10.8016 21.9845 10.773 21.9619 10.7369C21.9394 10.7007 21.9281 10.6586 21.9297 10.616C21.9106 9.82884 21.7003 9.05824 21.317 8.37109C20.9337 7.68394 20.389 7.10099 19.7301 6.67285C18.8801 6.07605 17.8919 5.60713 17.0206 5.07428C16.4468 4.69062 14.4173 3.64622 15.3948 3.64622L19.7408 4.27499C20.5572 4.32016 21.3433 4.60056 22.0049 5.08258C22.6664 5.5646 23.1752 6.22777 23.4704 6.99256C23.6729 7.66921 23.6687 8.39115 23.4585 9.06541C23.2483 9.73968 22.8417 10.3354 22.291 10.7758Z" fill="white"/>
<path d="M28.167 3.30519C27.7845 2.95351 27.3488 2.64445 26.9769 2.23948C26.1481 1.41888 26.1587 0.662223 27.1576 0.0334518C28.1564 -0.286262 28.7195 1.77057 29.4315 2.59117C30.4941 3.76345 30.4941 4.55208 29.8246 5.30873C29.3358 5.87356 29.4315 4.48813 28.167 3.30519Z" fill="white"/>
<path d="M41.1198 45.8272C41.2048 46.3493 39.9191 45.8272 39.069 46.1682C38.8494 46.2271 38.6181 46.2255 38.3993 46.1636C38.1805 46.1017 37.9824 45.9818 37.8258 45.8165L36.9758 45.0705C36.9154 45.0169 36.872 44.9468 36.8508 44.8688C36.8296 44.7909 36.8315 44.7084 36.8563 44.6315C36.8811 44.5546 36.9277 44.4866 36.9905 44.4358C37.0532 44.3851 37.1293 44.3538 37.2095 44.3458C39.4091 44.1007 40.9392 44.4098 41.1198 45.8272Z" fill="white"/>
<path d="M8.11617 37.6851C8.56246 37.5892 8.8281 37.9302 8.94499 38.2926C9.13625 38.9426 8.38182 38.9746 8.16931 38.932C7.31947 38.7463 6.48196 38.5079 5.66162 38.218C5.24722 38.1114 4.90719 37.8343 5.79976 37.8236C6.57439 37.8419 7.3492 37.7956 8.11617 37.6851Z" fill="white"/>
<path d="M25.7884 12.1366L22.5957 28.7311L56.5781 36.4097L55.9729 24.7878L25.7884 12.1366Z" fill="#BE1E2D"/>
</svg>
